<svg xmlns="http://www.w3.org/2000/svg" xmlns:xlink="http://www.w3.org/1999/xlink" contentStyleType="text/css" data-diagram-type="DESCRIPTION" height="1114px" preserveAspectRatio="none" style="width:609px;height:1114px;background:#FFFFFF;" version="1.1" viewBox="0 0 609 1114" width="609px" zoomAndPan="magnify"><title>Rescue Analytics Pipeline (WiSARD SAR)</title><defs/><g><g class="title" data-source-line="1"><text fill="#000000" font-family="sans-serif" font-size="14" font-weight="bold" lengthAdjust="spacing" textLength="319.8535" x="137.8743" y="22.9951">Rescue Analytics Pipeline (WiSARD SAR)</text></g><!--cluster Data Lake--><g class="cluster" data-entity="Data Lake" data-source-line="5" data-uid="ent0003" id="cluster_Data Lake"><path d="M405.5,43.2969 L485.7559,43.2969 A3.75,3.75 0 0 1 488.2559,45.7969 L495.2559,65.5938 L598.5,65.5938 A2.5,2.5 0 0 1 601,68.0938 L601,170.7969 A2.5,2.5 0 0 1 598.5,173.2969 L405.5,173.2969 A2.5,2.5 0 0 1 403,170.7969 L403,45.7969 A2.5,2.5 0 0 1 405.5,43.2969" fill="none" style="stroke:#000000;stroke-width:1.5;"/><line style="stroke:#000000;stroke-width:1.5;" x1="403" x2="495.2559" y1="65.5938" y2="65.5938"/><text fill="#000000" font-family="sans-serif" font-size="14" font-weight="bold" lengthAdjust="spacing" textLength="79.2559" x="407" y="58.292">Data Lake</text></g><!--cluster ETL Layer (Python)--><g class="cluster" data-entity="ETL Layer .Python." data-source-line="9" data-uid="ent0005" id="cluster_ETL Layer .Python."><path d="M130.5,222.2969 L281.6035,222.2969 A3.75,3.75 0 0 1 284.1035,224.7969 L291.1035,244.5938 L361.5,244.5938 A2.5,2.5 0 0 1 364,247.0938 L364,398.7969 A2.5,2.5 0 0 1 361.5,401.2969 L130.5,401.2969 A2.5,2.5 0 0 1 128,398.7969 L128,224.7969 A2.5,2.5 0 0 1 130.5,222.2969" fill="none" style="stroke:#000000;stroke-width:1.5;"/><line style="stroke:#000000;stroke-width:1.5;" x1="128" x2="291.1035" y1="244.5938" y2="244.5938"/><text fill="#000000" font-family="sans-serif" font-size="14" font-weight="bold" lengthAdjust="spacing" textLength="150.1035" x="132" y="237.292">ETL Layer (Python)</text></g><!--cluster Metadata Store--><g class="cluster" data-entity="Metadata Store" data-source-line="13" data-uid="ent0007" id="cluster_Metadata Store"><path d="M148.5,450.2969 L272.3418,450.2969 A3.75,3.75 0 0 1 274.8418,452.7969 L281.8418,472.5938 L343.5,472.5938 A2.5,2.5 0 0 1 346,475.0938 L346,560.7969 A2.5,2.5 0 0 1 343.5,563.2969 L148.5,563.2969 A2.5,2.5 0 0 1 146,560.7969 L146,452.7969 A2.5,2.5 0 0 1 148.5,450.2969" fill="none" style="stroke:#000000;stroke-width:1.5;"/><line style="stroke:#000000;stroke-width:1.5;" x1="146" x2="281.8418" y1="472.5938" y2="472.5938"/><text fill="#000000" font-family="sans-serif" font-size="14" font-weight="bold" lengthAdjust="spacing" textLength="122.8418" x="150" y="465.292">Metadata Store</text></g><!--cluster Analytics--><g class="cluster" data-entity="Analytics" data-source-line="17" data-uid="ent0009" id="cluster_Analytics"><path d="M8.5,612.2969 L81.7969,612.2969 A3.75,3.75 0 0 1 84.2969,614.7969 L91.2969,634.5938 L189.5,634.5938 A2.5,2.5 0 0 1 192,637.0938 L192,739.7969 A2.5,2.5 0 0 1 189.5,742.2969 L8.5,742.2969 A2.5,2.5 0 0 1 6,739.7969 L6,614.7969 A2.5,2.5 0 0 1 8.5,612.2969" fill="none" style="stroke:#000000;stroke-width:1.5;"/><line style="stroke:#000000;stroke-width:1.5;" x1="6" x2="91.2969" y1="634.5938" y2="634.5938"/><text fill="#000000" font-family="sans-serif" font-size="14" font-weight="bold" lengthAdjust="spacing" textLength="72.2969" x="10" y="627.292">Analytics</text></g><!--cluster Visualization--><g class="cluster" data-entity="Visualization" data-source-line="21" data-uid="ent0011" id="cluster_Visualization"><path d="M109.5,791.2969 L212.1504,791.2969 A3.75,3.75 0 0 1 214.6504,793.7969 L221.6504,813.5938 L382.5,813.5938 A2.5,2.5 0 0 1 385,816.0938 L385,967.7969 A2.5,2.5 0 0 1 382.5,970.2969 L109.5,970.2969 A2.5,2.5 0 0 1 107,967.7969 L107,793.7969 A2.5,2.5 0 0 1 109.5,791.2969" fill="none" style="stroke:#000000;stroke-width:1.5;"/><line style="stroke:#000000;stroke-width:1.5;" x1="107" x2="221.6504" y1="813.5938" y2="813.5938"/><text fill="#000000" font-family="sans-serif" font-size="14" font-weight="bold" lengthAdjust="spacing" textLength="101.6504" x="111" y="806.292">Visualization</text></g><!--cluster Alerts (optional)--><g class="cluster" data-entity="Alerts .optional." data-source-line="25" data-uid="ent0013" id="cluster_Alerts .optional."><path d="M348.5,612.2969 L479.1914,612.2969 A3.75,3.75 0 0 1 481.6914,614.7969 L488.6914,634.5938 L597.5,634.5938 A2.5,2.5 0 0 1 600,637.0938 L600,739.7969 A2.5,2.5 0 0 1 597.5,742.2969 L348.5,742.2969 A2.5,2.5 0 0 1 346,739.7969 L346,614.7969 A2.5,2.5 0 0 1 348.5,612.2969" fill="none" style="stroke:#000000;stroke-width:1.5;"/><line style="stroke:#000000;stroke-width:1.5;" x1="346" x2="488.6914" y1="634.5938" y2="634.5938"/><text fill="#000000" font-family="sans-serif" font-size="14" font-weight="bold" lengthAdjust="spacing" textLength="129.6914" x="350" y="627.292">Alerts (optional)</text></g><!--entity S3--><g class="entity" data-entity="S3" data-source-line="6" data-uid="ent0004" id="entity_S3"><rect fill="#F1F1F1" height="78.8906" rx="2.5" ry="2.5" style="stroke:#181818;stroke-width:0.5;" width="167.0664" x="418.5" y="78.2969"/><rect fill="#F1F1F1" height="10" style="stroke:#181818;stroke-width:0.5;" width="15" x="565.5664" y="83.2969"/><rect fill="#F1F1F1" height="2" style="stroke:#181818;stroke-width:0.5;" width="4" x="563.5664" y="85.2969"/><rect fill="#F1F1F1" height="2" style="stroke:#181818;stroke-width:0.5;" width="4" x="563.5664" y="89.2969"/><text fill="#000000" font-family="sans-serif" font-size="14" lengthAdjust="spacing" textLength="127.0664" x="433.5" y="111.292">S3 Object Storage</text><text fill="#000000" font-family="sans-serif" font-size="14" lengthAdjust="spacing" textLength="106.0186" x="433.5" y="127.5889">- IR/VIS images</text><text fill="#000000" font-family="sans-serif" font-size="14" lengthAdjust="spacing" textLength="93.4951" x="433.5" y="143.8857">- YOLO labels</text></g><!--entity ETL--><g class="entity" data-entity="ETL" data-source-line="10" data-uid="ent0006" id="entity_ETL"><rect fill="#F1F1F1" height="127.7813" rx="2.5" ry="2.5" style="stroke:#181818;stroke-width:0.5;" width="205.1494" x="143.5" y="257.2969"/><rect fill="#F1F1F1" height="10" style="stroke:#181818;stroke-width:0.5;" width="15" x="328.6494" y="262.2969"/><rect fill="#F1F1F1" height="2" style="stroke:#181818;stroke-width:0.5;" width="4" x="326.6494" y="264.2969"/><rect fill="#F1F1F1" height="2" style="stroke:#181818;stroke-width:0.5;" width="4" x="326.6494" y="268.2969"/><text fill="#000000" font-family="sans-serif" font-size="14" lengthAdjust="spacing" textLength="94.1104" x="158.5" y="290.292">ETL Extractor</text><text fill="#000000" font-family="sans-serif" font-size="14" lengthAdjust="spacing" textLength="118.7402" x="158.5" y="306.5889">- list S3 by prefix</text><text fill="#000000" font-family="sans-serif" font-size="14" lengthAdjust="spacing" textLength="165.1494" x="158.5" y="322.8857">- download image + txt</text><text fill="#000000" font-family="sans-serif" font-size="14" lengthAdjust="spacing" textLength="91.4717" x="158.5" y="339.1826">- parse YOLO</text><text fill="#000000" font-family="sans-serif" font-size="14" lengthAdjust="spacing" textLength="143.5684" x="158.5" y="355.4795">- compute metadata</text><text fill="#000000" font-family="sans-serif" font-size="14" lengthAdjust="spacing" textLength="151.0537" x="158.5" y="371.7764">- incremental by etag</text></g><!--entity DB--><g class="entity" data-entity="DB" data-source-line="14" data-uid="ent0008" id="entity_DB"><path d="M161.5,495.2969 C161.5,485.2969 245.8374,485.2969 245.8374,485.2969 C245.8374,485.2969 330.1748,485.2969 330.1748,495.2969 L330.1748,536.8906 C330.1748,546.8906 245.8374,546.8906 245.8374,546.8906 C245.8374,546.8906 161.5,546.8906 161.5,536.8906 L161.5,495.2969" fill="#F1F1F1" style="stroke:#181818;stroke-width:0.5;"/><path d="M161.5,495.2969 C161.5,505.2969 245.8374,505.2969 245.8374,505.2969 C245.8374,505.2969 330.1748,505.2969 330.1748,495.2969" fill="none" style="stroke:#181818;stroke-width:0.5;"/><text fill="#000000" font-family="sans-serif" font-size="14" lengthAdjust="spacing" textLength="80.7529" x="171.5" y="522.292">PostgreSQL</text><text fill="#000000" font-family="sans-serif" font-size="14" lengthAdjust="spacing" textLength="148.6748" x="171.5" y="538.5889">(images, yolo_boxes)</text></g><!--entity ANAL--><g class="entity" data-entity="ANAL" data-source-line="18" data-uid="ent0010" id="entity_ANAL"><rect fill="#F1F1F1" height="78.8906" rx="2.5" ry="2.5" style="stroke:#181818;stroke-width:0.5;" width="153.0391" x="22.5" y="647.2969"/><rect fill="#F1F1F1" height="10" style="stroke:#181818;stroke-width:0.5;" width="15" x="155.5391" y="652.2969"/><rect fill="#F1F1F1" height="2" style="stroke:#181818;stroke-width:0.5;" width="4" x="153.5391" y="654.2969"/><rect fill="#F1F1F1" height="2" style="stroke:#181818;stroke-width:0.5;" width="4" x="153.5391" y="658.2969"/><text fill="#000000" font-family="sans-serif" font-size="14" lengthAdjust="spacing" textLength="113.0391" x="37.5" y="680.292">Analysis Module</text><text fill="#000000" font-family="sans-serif" font-size="14" lengthAdjust="spacing" textLength="80.1582" x="37.5" y="696.5889">PCA / t-SNE</text><text fill="#000000" font-family="sans-serif" font-size="14" lengthAdjust="spacing" textLength="89.4482" x="37.5" y="712.8857">feature stats</text></g><!--entity DASH--><g class="entity" data-entity="DASH" data-source-line="22" data-uid="ent0012" id="entity_DASH"><rect fill="#F1F1F1" height="127.7813" rx="2.5" ry="2.5" style="stroke:#181818;stroke-width:0.5;" width="244.7227" x="123.5" y="826.2969"/><rect fill="#F1F1F1" height="10" style="stroke:#181818;stroke-width:0.5;" width="15" x="348.2227" y="831.2969"/><rect fill="#F1F1F1" height="2" style="stroke:#181818;stroke-width:0.5;" width="4" x="346.2227" y="833.2969"/><rect fill="#F1F1F1" height="2" style="stroke:#181818;stroke-width:0.5;" width="4" x="346.2227" y="837.2969"/><text fill="#000000" font-family="sans-serif" font-size="14" lengthAdjust="spacing" textLength="144.8809" x="138.5" y="859.292">Streamlit Dashboard</text><text fill="#000000" font-family="sans-serif" font-size="14" lengthAdjust="spacing" textLength="204.7227" x="138.5" y="875.5889">Mission Overview &amp; heatmap</text><text fill="#000000" font-family="sans-serif" font-size="14" lengthAdjust="spacing" textLength="192.3154" x="138.5" y="891.8857">Sensor Analytics (IR vs VIS)</text><text fill="#000000" font-family="sans-serif" font-size="14" lengthAdjust="spacing" textLength="133.834" x="138.5" y="908.1826">Scene Embeddings</text><text fill="#000000" font-family="sans-serif" font-size="14" lengthAdjust="spacing" textLength="177.5293" x="138.5" y="924.4795">Image &amp; Rescue Explorer</text><text fill="#000000" font-family="sans-serif" font-size="14" lengthAdjust="spacing" textLength="152.585" x="138.5" y="940.7764">IR/VIS switch + boxes</text></g><!--entity ALERT--><g class="entity" data-entity="ALERT" data-source-line="26" data-uid="ent0014" id="entity_ALERT"><rect fill="#F1F1F1" height="78.8906" rx="2.5" ry="2.5" style="stroke:#181818;stroke-width:0.5;" width="222.6016" x="361.5" y="647.2969"/><rect fill="#F1F1F1" height="10" style="stroke:#181818;stroke-width:0.5;" width="15" x="564.1016" y="652.2969"/><rect fill="#F1F1F1" height="2" style="stroke:#181818;stroke-width:0.5;" width="4" x="562.1016" y="654.2969"/><rect fill="#F1F1F1" height="2" style="stroke:#181818;stroke-width:0.5;" width="4" x="562.1016" y="658.2969"/><text fill="#000000" font-family="sans-serif" font-size="14" lengthAdjust="spacing" textLength="89.5166" x="376.5" y="680.292">Alert Service</text><text fill="#000000" font-family="sans-serif" font-size="14" lengthAdjust="spacing" textLength="182.6016" x="376.5" y="696.5889">query has_person = TRUE</text><text fill="#000000" font-family="sans-serif" font-size="14" lengthAdjust="spacing" textLength="160.1729" x="376.5" y="712.8857">send email/notification</text></g><!--entity User--><g class="entity" data-entity="User" data-source-line="3" data-uid="ent0002" id="entity_User"><ellipse cx="351.2305" cy="1041.7969" fill="#F1F1F1" rx="8" ry="8" style="stroke:#181818;stroke-width:0.5;"/><path d="M351.2305,1049.7969 L351.2305,1076.7969 M338.2305,1057.7969 L364.2305,1057.7969 M351.2305,1076.7969 L338.2305,1091.7969 M351.2305,1076.7969 L364.2305,1091.7969" fill="none" style="stroke:#181818;stroke-width:0.5;"/><text fill="#000000" font-family="sans-serif" font-size="14" lengthAdjust="spacing" textLength="163.4609" x="269.5" y="1106.292">SAR Analyst / Professor</text></g><g class="entity" data-entity="GMN23" data-source-line="39" data-uid="ent0024" id="entity_GMN23"><path d="M107,90.2969 L107,145.6953 A0,0 0 0 0 107,145.6953 L241.13,145.6953 L245.69,256.9169 L249.13,145.6953 L382.5728,145.6953 A0,0 0 0 0 382.5728,145.6953 L382.5728,100.2969 L372.5728,90.2969 L107,90.2969 A0,0 0 0 0 107,90.2969" fill="#FEFFDD" style="stroke:#181818;stroke-width:0.5;"/><path d="M372.5728,90.2969 L372.5728,100.2969 L382.5728,100.2969 L372.5728,90.2969" fill="#FEFFDD" style="stroke:#181818;stroke-width:0.5;"/><text fill="#000000" font-family="sans-serif" font-size="13" lengthAdjust="spacing" textLength="78.0762" x="113" y="107.3638">uses config:</text><text fill="#000000" font-family="sans-serif" font-size="13" lengthAdjust="spacing" textLength="134.5259" x="113" y="122.4966">- .env (DB, S3 creds)</text><text fill="#000000" font-family="sans-serif" font-size="13" lengthAdjust="spacing" textLength="254.5728" x="113" y="137.6294">- data_sources.yml (prefixes, modality)</text></g><!--link S3 to ETL--><g class="link" data-entity-1="S3" data-entity-2="ETL" data-source-line="29" data-uid="lnk15" id="link_S3_ETL"><path d="M452.94,157.4069 C417.08,185.6369 372.3744,220.8255 330.8244,253.5355" fill="none" id="S3-to-ETL" style="stroke:#181818;stroke-width:1;"/><polygon fill="#181818" points="326.11,257.2469,335.6559,254.8227,330.0387,254.1541,330.7073,248.5369,326.11,257.2469" style="stroke:#181818;stroke-width:1;"/><text fill="#000000" font-family="sans-serif" font-size="13" lengthAdjust="spacing" textLength="124.0903" x="412" y="202.3638">images + YOLO txt</text></g><!--link ETL to DB--><g class="link" data-entity-1="ETL" data-entity-2="DB" data-source-line="30" data-uid="lnk16" id="link_ETL_DB"><path d="M246,385.4969 C246,419.0269 246,452.6669 246,479.2469" fill="none" id="ETL-to-DB" style="stroke:#181818;stroke-width:1;"/><polygon fill="#181818" points="246,485.2469,250,476.2469,246,480.2469,242,476.2469,246,485.2469" style="stroke:#181818;stroke-width:1;"/><text fill="#000000" font-family="sans-serif" font-size="13" lengthAdjust="spacing" textLength="183.8853" x="247" y="430.3638">upsert images &amp; yolo_boxes</text></g><!--link DB to DASH--><g class="link" data-entity-1="DB" data-entity-2="DASH" data-source-line="31" data-uid="lnk17" id="link_DB_DASH"><path d="M246,547.4269 C246,607.8769 246,739.0969 246,820.1169" fill="none" id="DB-to-DASH" style="stroke:#181818;stroke-width:1;"/><polygon fill="#181818" points="246,826.1169,250,817.1169,246,821.1169,242,817.1169,246,826.1169" style="stroke:#181818;stroke-width:1;"/><text fill="#000000" font-family="sans-serif" font-size="13" lengthAdjust="spacing" textLength="78.0762" x="247" y="691.3638">SQL queries</text></g><!--link DB to ANAL--><g class="link" data-entity-1="DB" data-entity-2="ANAL" data-source-line="32" data-uid="lnk18" id="link_DB_ANAL"><path d="M176.89,547.3469 C162.59,556.0269 148.66,566.6469 138,579.2969 C121.69,598.6469 113.4389,619.5897 107.7589,641.4497" fill="none" id="DB-to-ANAL" style="stroke:#181818;stroke-width:1;"/><polygon fill="#181818" points="106.25,647.2569,112.3848,639.5521,107.5074,642.4176,104.6419,637.5402,106.25,647.2569" style="stroke:#181818;stroke-width:1;"/><text fill="#000000" font-family="sans-serif" font-size="13" lengthAdjust="spacing" textLength="80.6343" x="139" y="592.3638">feature data</text></g><!--link ANAL to DASH--><g class="link" data-entity-1="ANAL" data-entity-2="DASH" data-source-line="33" data-uid="lnk19" id="link_ANAL_DASH"><path d="M91.16,726.5169 C89.79,742.3669 90.69,760.4369 98,775.2969 C107.52,794.6469 117.599,807.6468 133.939,822.1968" fill="none" id="ANAL-to-DASH" style="stroke:#181818;stroke-width:1;"/><polygon fill="#181818" points="138.42,826.1869,134.3586,817.2144,134.6859,822.8618,129.0385,823.189,138.42,826.1869" style="stroke:#181818;stroke-width:1;"/><text fill="#000000" font-family="sans-serif" font-size="13" lengthAdjust="spacing" textLength="120.2627" x="99" y="771.3638">embeddings, stats</text></g><!--link DASH to User--><g class="link" data-entity-1="DASH" data-entity-2="User" data-source-line="34" data-uid="lnk20" id="link_DASH_User"><path d="M282.47,954.4569 C291.74,970.4169 301.71,987.5069 311,1003.2969 C316.7,1012.9869 319.8347,1018.2849 325.6247,1027.9849" fill="none" id="DASH-to-User" style="stroke:#181818;stroke-width:1;"/><polygon fill="#181818" points="328.7,1033.1369,327.5218,1023.3587,326.1373,1028.8436,320.6525,1027.4591,328.7,1033.1369" style="stroke:#181818;stroke-width:1;"/><text fill="#000000" font-family="sans-serif" font-size="13" lengthAdjust="spacing" textLength="117.6157" x="312" y="999.3638">visual analytics UI</text></g><!--link DB to ALERT--><g class="link" data-entity-1="DB" data-entity-2="ALERT" data-source-line="35" data-uid="lnk21" id="link_DB_ALERT"><path d="M286.58,547.4169 C324.08,575.2469 375.1625,613.1703 415.9625,643.4603" fill="none" id="DB-to-ALERT" style="stroke:#181818;stroke-width:1;"/><polygon fill="#181818" points="420.78,647.0369,415.9381,638.4604,416.7654,644.0564,411.1694,644.8838,420.78,647.0369" style="stroke:#181818;stroke-width:1;"/><text fill="#000000" font-family="sans-serif" font-size="13" lengthAdjust="spacing" textLength="118.936" x="346" y="592.3638">rescue candidates</text></g><!--link ALERT to User--><g class="link" data-entity-1="ALERT" data-entity-2="User" data-source-line="36" data-uid="lnk22" id="link_ALERT_User"><path d="M477.11,726.5469 C481.88,789.0269 483.61,914.0569 434,1003.2969 C427.79,1014.4669 423.3671,1020.4713 413.6871,1029.1513" fill="none" id="ALERT-to-User" style="stroke:#181818;stroke-width:1;"/><polygon fill="#181818" points="409.22,1033.1569,418.5911,1030.1265,412.9426,1029.8189,413.2502,1024.1704,409.22,1033.1569" style="stroke:#181818;stroke-width:1;"/><text fill="#000000" font-family="sans-serif" font-size="13" lengthAdjust="spacing" textLength="121.6021" x="480" y="894.8638">email / notification</text></g><!--SRC=[LLDDRnen4BtxLumuHA26v91Rf5OY1Qb8950sILMLAl9w1t3ZjRSUBs5JzRztx5qeN5QQZvrvyzvpqC4WB95KZJ2oqZH1AuA5hj1eYz3_fhFHSWpy6GWXLN0UUXoqlHJW6XRUhP78-Hv8WYT2BqGbrQlS8FJ6CaYOoLVimHy1y2ExWNd-2rM0Z4TnoyeEORgyVfvce4kEAIQ-psTpC397Gp_ZqEn6_3qPEdcSySm6FVGNJTWwE-Ycny9a7tp26GSPpH1vPzv0vN6jzp5Pk3Thd2pQXV01mZx4V2KzOTeT8-NAgWu89GPPy1KnfwtoMA8DqiIHNDaaVBpt3E1zzqywiZiznhda1Rs5ex3nc7sThMo_FVeI6cVSI-xsI8F4u_ZkRE9HckxIbdvDSE-AsZ2BYyyZrY8CiuV9ogvHXjeZK92XPN3qC3g7-AofbaQ_ow2TFOWJFChIw01ZITlSIL-ixBqcuXQOxz3lDBx11MnvV2chbStGikudlkbFbx0ZO3K7N5N83fgKEHQ5jXjMTfe8lpZuRRAl3FF3IdKEe3STr9OLIKGauEDHzkMS2OC-y2PNHUJI7BHFUSWYICLy_AxHDx2Lz5AX9yR_4HwNJymDeIq0IwdDjNL1hxLA5BGipIRBnxYDBJCSVegwmctdIqQLRCbc4J4Vw-CxBjSLnSrTryM9aeBhgOrlu4OM728i_RyIPU7AGQ_e4P5o9x_XaS3BLb2H2h4ZFZRks2KjGHvbU9eU5yIBkCMtZ2jf2yrR645REPcIE64FdR8Y14S8mLNWridcDV6HojcrtjoA8LoXtK5_V7SPNna_Ze86d8rtl92hlKAwQae3_VRrHQENhc3VXMOWeX1n_3y0]--></g></svg>